<mxfile host="65bd71144e">
    <diagram name="Page-1" id="kCu8spEuouOoqubRH__a">
        <mxGraphModel dx="609" dy="385" grid="1" gridSize="10" guides="1" tooltips="1" connect="1" arrows="1" fold="1" page="1" pageScale="1" pageWidth="850" pageHeight="1100" math="0" shadow="0">
            <root>
                <mxCell id="0"/>
                <mxCell id="1" parent="0"/>
                <mxCell id="Ea4pLo8VuYlLMe_q-YIC-3" value="ESP" style="rounded=0;whiteSpace=wrap;html=1;verticalAlign=top;" parent="1" vertex="1">
                    <mxGeometry x="10" y="420" width="830" height="420" as="geometry"/>
                </mxCell>
                <mxCell id="aAXdhGjUWswuDpSRGmn2-10" value="Utilities" style="rounded=0;whiteSpace=wrap;html=1;rotation=-90;" parent="1" vertex="1">
                    <mxGeometry x="-80" y="540" width="270" height="71.25" as="geometry"/>
                </mxCell>
                <mxCell id="Ea4pLo8VuYlLMe_q-YIC-12" value="Integrations" style="rounded=0;whiteSpace=wrap;html=1;verticalAlign=top;" parent="1" vertex="1">
                    <mxGeometry x="100" y="525" width="730" height="100" as="geometry"/>
                </mxCell>
                <mxCell id="Ea4pLo8VuYlLMe_q-YIC-2" value="Ecodan" style="rounded=0;whiteSpace=wrap;html=1;" parent="1" vertex="1">
                    <mxGeometry x="350" y="870" width="120" height="60" as="geometry"/>
                </mxCell>
                <mxCell id="MynGY84Yjb9-_IulCcOY-10" style="edgeStyle=orthogonalEdgeStyle;rounded=0;orthogonalLoop=1;jettySize=auto;html=1;entryX=0.5;entryY=0;entryDx=0;entryDy=0;startArrow=classic;startFill=1;" parent="1" source="Ea4pLo8VuYlLMe_q-YIC-4" target="Ea4pLo8VuYlLMe_q-YIC-2" edge="1">
                    <mxGeometry relative="1" as="geometry"/>
                </mxCell>
                <mxCell id="Ea4pLo8VuYlLMe_q-YIC-4" value="Ecodan Serial Bridge" style="rounded=0;whiteSpace=wrap;html=1;" parent="1" vertex="1">
                    <mxGeometry x="350" y="780" width="120" height="40" as="geometry"/>
                </mxCell>
                <mxCell id="MynGY84Yjb9-_IulCcOY-5" style="edgeStyle=orthogonalEdgeStyle;rounded=0;orthogonalLoop=1;jettySize=auto;html=1;startArrow=classic;startFill=1;exitX=0.5;exitY=0;exitDx=0;exitDy=0;exitPerimeter=0;" parent="1" source="2" target="Ea4pLo8VuYlLMe_q-YIC-11" edge="1">
                    <mxGeometry relative="1" as="geometry">
                        <Array as="points">
                            <mxPoint x="410" y="290"/>
                            <mxPoint x="440" y="290"/>
                        </Array>
                    </mxGeometry>
                </mxCell>
                <mxCell id="MynGY84Yjb9-_IulCcOY-6" style="edgeStyle=orthogonalEdgeStyle;rounded=0;orthogonalLoop=1;jettySize=auto;html=1;startArrow=classic;startFill=1;exitX=0.5;exitY=0;exitDx=0;exitDy=0;exitPerimeter=0;" parent="1" source="2" target="aAXdhGjUWswuDpSRGmn2-1" edge="1">
                    <mxGeometry relative="1" as="geometry">
                        <Array as="points">
                            <mxPoint x="420" y="330"/>
                            <mxPoint x="420" y="370"/>
                            <mxPoint x="410" y="370"/>
                            <mxPoint x="410" y="290"/>
                            <mxPoint x="300" y="290"/>
                        </Array>
                    </mxGeometry>
                </mxCell>
                <mxCell id="Ea4pLo8VuYlLMe_q-YIC-5" value="MQTT" style="rounded=0;whiteSpace=wrap;html=1;" parent="1" vertex="1">
                    <mxGeometry x="350" y="551.25" width="120" height="60" as="geometry"/>
                </mxCell>
                <mxCell id="Ea4pLo8VuYlLMe_q-YIC-7" value="REST?" style="rounded=0;whiteSpace=wrap;html=1;" parent="1" vertex="1">
                    <mxGeometry x="520" y="555" width="120" height="60" as="geometry"/>
                </mxCell>
                <mxCell id="MynGY84Yjb9-_IulCcOY-18" style="edgeStyle=orthogonalEdgeStyle;rounded=0;orthogonalLoop=1;jettySize=auto;html=1;startArrow=classic;startFill=1;" parent="1" source="Ea4pLo8VuYlLMe_q-YIC-8" target="aAXdhGjUWswuDpSRGmn2-13" edge="1">
                    <mxGeometry relative="1" as="geometry">
                        <Array as="points">
                            <mxPoint x="565" y="743"/>
                            <mxPoint x="565" y="710"/>
                        </Array>
                    </mxGeometry>
                </mxCell>
                <mxCell id="MynGY84Yjb9-_IulCcOY-20" style="edgeStyle=orthogonalEdgeStyle;rounded=0;orthogonalLoop=1;jettySize=auto;html=1;fillColor=#ffe6cc;strokeColor=#d79b00;startArrow=classic;startFill=1;" parent="1" source="Ea4pLo8VuYlLMe_q-YIC-8" target="Ea4pLo8VuYlLMe_q-YIC-5" edge="1">
                    <mxGeometry relative="1" as="geometry">
                        <Array as="points">
                            <mxPoint x="680" y="720"/>
                            <mxPoint x="680" y="581"/>
                        </Array>
                    </mxGeometry>
                </mxCell>
                <mxCell id="Ea4pLo8VuYlLMe_q-YIC-8" value="SmartController&lt;br&gt;(Internal)" style="rounded=0;whiteSpace=wrap;html=1;" parent="1" vertex="1">
                    <mxGeometry x="700" y="710" width="120" height="60" as="geometry"/>
                </mxCell>
                <mxCell id="Ea4pLo8VuYlLMe_q-YIC-11" value="Home Assistant - MQTT autodiscovery" style="rounded=0;whiteSpace=wrap;html=1;" parent="1" vertex="1">
                    <mxGeometry x="365" y="192" width="120" height="60" as="geometry"/>
                </mxCell>
                <mxCell id="MynGY84Yjb9-_IulCcOY-3" style="edgeStyle=orthogonalEdgeStyle;rounded=0;orthogonalLoop=1;jettySize=auto;html=1;entryX=0.5;entryY=0;entryDx=0;entryDy=0;startArrow=classic;startFill=1;" parent="1" source="Ea4pLo8VuYlLMe_q-YIC-15" target="Ea4pLo8VuYlLMe_q-YIC-7" edge="1">
                    <mxGeometry relative="1" as="geometry">
                        <Array as="points">
                            <mxPoint x="580" y="410"/>
                            <mxPoint x="580" y="410"/>
                        </Array>
                    </mxGeometry>
                </mxCell>
                <mxCell id="Ea4pLo8VuYlLMe_q-YIC-15" value="Mobile App?" style="rounded=0;whiteSpace=wrap;html=1;" parent="1" vertex="1">
                    <mxGeometry x="520" y="330" width="120" height="60" as="geometry"/>
                </mxCell>
                <mxCell id="aAXdhGjUWswuDpSRGmn2-1" value="InfluxDB/ Grafana" style="rounded=0;whiteSpace=wrap;html=1;" parent="1" vertex="1">
                    <mxGeometry x="240" y="192" width="120" height="60" as="geometry"/>
                </mxCell>
                <mxCell id="MynGY84Yjb9-_IulCcOY-8" style="edgeStyle=orthogonalEdgeStyle;rounded=0;orthogonalLoop=1;jettySize=auto;html=1;entryX=1;entryY=0.5;entryDx=0;entryDy=0;startArrow=classic;startFill=1;" parent="1" source="aAXdhGjUWswuDpSRGmn2-4" target="aAXdhGjUWswuDpSRGmn2-13" edge="1">
                    <mxGeometry relative="1" as="geometry">
                        <Array as="points">
                            <mxPoint x="720" y="700"/>
                        </Array>
                    </mxGeometry>
                </mxCell>
                <mxCell id="MynGY84Yjb9-_IulCcOY-19" style="edgeStyle=orthogonalEdgeStyle;rounded=0;orthogonalLoop=1;jettySize=auto;html=1;startArrow=classic;startFill=1;" parent="1" source="aAXdhGjUWswuDpSRGmn2-4" target="Ea4pLo8VuYlLMe_q-YIC-8" edge="1">
                    <mxGeometry relative="1" as="geometry"/>
                </mxCell>
                <mxCell id="aAXdhGjUWswuDpSRGmn2-4" value="Web App?" style="rounded=0;whiteSpace=wrap;html=1;" parent="1" vertex="1">
                    <mxGeometry x="700" y="555" width="120" height="60" as="geometry"/>
                </mxCell>
                <mxCell id="aAXdhGjUWswuDpSRGmn2-5" value="Console (telnet)" style="rounded=0;whiteSpace=wrap;html=1;" parent="1" vertex="1">
                    <mxGeometry x="28.120000000000005" y="660.62" width="57.5" height="40" as="geometry"/>
                </mxCell>
                <mxCell id="aAXdhGjUWswuDpSRGmn2-7" value="PVoutput.org?&lt;br&gt;&lt;br&gt;(&quot;misbruikt&quot; voor warmtepomp data)" style="rounded=0;whiteSpace=wrap;html=1;" parent="1" vertex="1">
                    <mxGeometry x="110" y="192" width="120" height="60" as="geometry"/>
                </mxCell>
                <mxCell id="MynGY84Yjb9-_IulCcOY-4" style="edgeStyle=orthogonalEdgeStyle;rounded=0;orthogonalLoop=1;jettySize=auto;html=1;entryX=0.5;entryY=1;entryDx=0;entryDy=0;" parent="1" source="aAXdhGjUWswuDpSRGmn2-8" target="aAXdhGjUWswuDpSRGmn2-7" edge="1">
                    <mxGeometry relative="1" as="geometry"/>
                </mxCell>
                <mxCell id="aAXdhGjUWswuDpSRGmn2-8" value="PVoutput logger?" style="rounded=0;whiteSpace=wrap;html=1;" parent="1" vertex="1">
                    <mxGeometry x="110" y="551.25" width="120" height="60" as="geometry"/>
                </mxCell>
                <mxCell id="aAXdhGjUWswuDpSRGmn2-12" value="Debug log" style="rounded=0;whiteSpace=wrap;html=1;" parent="1" vertex="1">
                    <mxGeometry x="28.120000000000005" y="610.62" width="57.5" height="40" as="geometry"/>
                </mxCell>
                <mxCell id="MynGY84Yjb9-_IulCcOY-9" style="edgeStyle=orthogonalEdgeStyle;rounded=0;orthogonalLoop=1;jettySize=auto;html=1;startArrow=classic;startFill=1;" parent="1" source="aAXdhGjUWswuDpSRGmn2-13" target="Ea4pLo8VuYlLMe_q-YIC-4" edge="1">
                    <mxGeometry relative="1" as="geometry"/>
                </mxCell>
                <mxCell id="MynGY84Yjb9-_IulCcOY-11" style="edgeStyle=orthogonalEdgeStyle;rounded=0;orthogonalLoop=1;jettySize=auto;html=1;entryX=0.5;entryY=1;entryDx=0;entryDy=0;" parent="1" source="aAXdhGjUWswuDpSRGmn2-13" target="aAXdhGjUWswuDpSRGmn2-8" edge="1">
                    <mxGeometry relative="1" as="geometry"/>
                </mxCell>
                <mxCell id="MynGY84Yjb9-_IulCcOY-12" style="edgeStyle=orthogonalEdgeStyle;rounded=0;orthogonalLoop=1;jettySize=auto;html=1;entryX=0.5;entryY=1;entryDx=0;entryDy=0;startArrow=classic;startFill=1;" parent="1" source="aAXdhGjUWswuDpSRGmn2-13" target="Ea4pLo8VuYlLMe_q-YIC-5" edge="1">
                    <mxGeometry relative="1" as="geometry"/>
                </mxCell>
                <mxCell id="MynGY84Yjb9-_IulCcOY-14" style="edgeStyle=orthogonalEdgeStyle;rounded=0;orthogonalLoop=1;jettySize=auto;html=1;exitX=0.5;exitY=1;exitDx=0;exitDy=0;startArrow=classic;startFill=1;" parent="1" source="Ea4pLo8VuYlLMe_q-YIC-7" target="aAXdhGjUWswuDpSRGmn2-13" edge="1">
                    <mxGeometry relative="1" as="geometry">
                        <Array as="points">
                            <mxPoint x="580" y="680"/>
                        </Array>
                    </mxGeometry>
                </mxCell>
                <mxCell id="aAXdhGjUWswuDpSRGmn2-13" value="StateMachine" style="rounded=0;whiteSpace=wrap;html=1;" parent="1" vertex="1">
                    <mxGeometry x="320" y="660" width="180" height="80" as="geometry"/>
                </mxCell>
                <mxCell id="MynGY84Yjb9-_IulCcOY-17" style="edgeStyle=orthogonalEdgeStyle;rounded=0;orthogonalLoop=1;jettySize=auto;html=1;" parent="1" source="MynGY84Yjb9-_IulCcOY-16" target="Ea4pLo8VuYlLMe_q-YIC-11" edge="1">
                    <mxGeometry relative="1" as="geometry"/>
                </mxCell>
                <mxCell id="MynGY84Yjb9-_IulCcOY-16" value="SmartController&lt;br&gt;(HA)" style="rounded=0;whiteSpace=wrap;html=1;" parent="1" vertex="1">
                    <mxGeometry x="365" y="112" width="120" height="60" as="geometry"/>
                </mxCell>
                <mxCell id="2" value="MQTT" style="shape=cylinder3;whiteSpace=wrap;html=1;boundedLbl=1;backgroundOutline=1;size=15;" vertex="1" parent="1">
                    <mxGeometry x="380" y="320" width="60" height="80" as="geometry"/>
                </mxCell>
                <mxCell id="3" style="edgeStyle=orthogonalEdgeStyle;rounded=0;orthogonalLoop=1;jettySize=auto;html=1;startArrow=classic;startFill=1;exitX=0.5;exitY=1;exitDx=0;exitDy=0;exitPerimeter=0;entryX=0.5;entryY=0;entryDx=0;entryDy=0;" edge="1" parent="1" source="2" target="Ea4pLo8VuYlLMe_q-YIC-5">
                    <mxGeometry relative="1" as="geometry">
                        <Array as="points">
                            <mxPoint x="410" y="520"/>
                            <mxPoint x="410" y="520"/>
                        </Array>
                        <mxPoint x="580" y="390" as="sourcePoint"/>
                        <mxPoint x="420" y="550" as="targetPoint"/>
                    </mxGeometry>
                </mxCell>
            </root>
        </mxGraphModel>
    </diagram>
</mxfile>